<svg width="80" height="18" fill="none" xmlns="http://www.w3.org/2000/svg"><path d="M3.092 9.366c0 .836.103 1.599.308 2.288.205.675.499 1.254.88 1.738.396.47.873.836 1.43 1.1.557.264 1.188.396 1.892.396.69 0 1.313-.132 1.87-.396a3.99 3.99 0 0 0 1.408-1.1 5.014 5.014 0 0 0 .902-1.738c.205-.69.308-1.452.308-2.288 0-.836-.103-1.591-.308-2.266-.205-.69-.506-1.269-.902-1.738A3.888 3.888 0 0 0 9.472 4.24c-.557-.264-1.18-.396-1.87-.396-.704 0-1.335.132-1.892.396a4.09 4.09 0 0 0-1.43 1.122c-.381.484-.675 1.063-.88 1.738-.205.675-.308 1.43-.308 2.266Zm11.902 0c0 1.305-.198 2.457-.594 3.454-.381.997-.91 1.833-1.584 2.508a6.498 6.498 0 0 1-2.332 1.496 8.04 8.04 0 0 1-2.86.506 8.22 8.22 0 0 1-2.882-.506 6.716 6.716 0 0 1-2.354-1.496c-.66-.675-1.188-1.51-1.584-2.508C.408 11.823.21 10.671.21 9.366c0-1.305.198-2.45.594-3.432.396-.997.931-1.833 1.606-2.508a6.786 6.786 0 0 1 2.376-1.518 7.977 7.977 0 0 1 2.838-.506c.997 0 1.943.169 2.838.506a6.36 6.36 0 0 1 2.332 1.518c.675.675 1.21 1.51 1.606 2.508.396.983.594 2.127.594 3.432ZM27.561 17h-2.662v-4.818h-4.334V17h-2.662V5.494h2.662v4.488h4.334V5.494h2.662V17Zm7.893-9.306c-.015.645-.037 1.32-.066 2.024-.03.69-.103 1.371-.22 2.046a9.389 9.389 0 0 1-.506 1.936 5.666 5.666 0 0 1-.99 1.672 5.29 5.29 0 0 1-1.562 1.232c-.616.323-1.371.528-2.266.616l-.374-2.222c.748-.147 1.327-.381 1.738-.704.41-.337.726-.763.946-1.276.176-.381.308-.814.396-1.298.103-.484.176-.99.22-1.518a20.32 20.32 0 0 0 .11-1.65c.015-.557.022-1.1.022-1.628v-1.43h8.14V17H38.38V7.694h-2.926Zm13.03 7.436c.822 0 1.445-.044 1.87-.132V12.05a5.949 5.949 0 0 0-1.562-.198c-.293 0-.594.022-.902.066a2.918 2.918 0 0 0-.814.242 1.463 1.463 0 0 0-.572.506c-.146.205-.22.47-.22.792 0 .63.198 1.07.594 1.32.396.235.931.352 1.606.352Zm-.22-9.922c.88 0 1.62.11 2.222.33.602.22 1.078.528 1.43.924.367.396.623.88.77 1.452.161.557.242 1.173.242 1.848v6.974c-.41.088-1.034.19-1.87.308-.821.132-1.752.198-2.794.198a8.42 8.42 0 0 1-1.892-.198 4.088 4.088 0 0 1-1.474-.638 3.15 3.15 0 0 1-.946-1.144c-.22-.47-.33-1.049-.33-1.738 0-.66.125-1.217.374-1.672a3.161 3.161 0 0 1 1.056-1.1c.44-.293.946-.499 1.518-.616a8.294 8.294 0 0 1 1.826-.198c.294 0 .602.022.924.066.323.03.667.088 1.034.176v-.44c0-.308-.036-.601-.11-.88a1.676 1.676 0 0 0-.396-.726 1.662 1.662 0 0 0-.726-.506c-.293-.117-.667-.176-1.122-.176-.616 0-1.18.044-1.694.132a7.45 7.45 0 0 0-1.254.308l-.33-2.156c.337-.117.829-.235 1.474-.352a11.56 11.56 0 0 1 2.068-.176Zm18 .286V17h-2.64v-2.486a128.4 128.4 0 0 0 .022-2.288c.015-.704.022-1.313.022-1.826.015-.528.022-.917.022-1.166a40.48 40.48 0 0 0-1.364 1.892l-1.408 2.068c-.454.69-.887 1.364-1.298 2.024-.41.66-.77 1.254-1.078 1.782h-2.354V5.494h2.618c0 .85-.007 1.665-.022 2.442v2.09c0 .63-.007 1.18-.022 1.65v1.078c.41-.63.836-1.276 1.276-1.936.44-.675.88-1.327 1.32-1.958A54.18 54.18 0 0 1 62.7 7.034c.44-.572.865-1.085 1.276-1.54h2.288Zm-5.016-1.716c-.47 0-.91-.066-1.32-.198a3.623 3.623 0 0 1-1.078-.572 3.112 3.112 0 0 1-.792-.902 3.104 3.104 0 0 1-.374-1.232l1.914-.506c.25 1.041.8 1.562 1.65 1.562.866 0 1.416-.513 1.65-1.54l1.892.506c-.059.455-.19.865-.396 1.232-.19.352-.447.653-.77.902a3.558 3.558 0 0 1-1.078.55c-.41.132-.843.198-1.298.198ZM79.317 17h-2.662v-4.818H72.32V17h-2.662V5.494h2.662v4.488h4.334V5.494h2.662V17Z" fill="#0ED984"/></svg>