<svg width="71" height="17" fill="none" xmlns="http://www.w3.org/2000/svg"><path d="M4.994 12.242a55.14 55.14 0 0 1-1.408-2.794 73.092 73.092 0 0 1-1.254-2.926 65.773 65.773 0 0 1-1.056-2.97A42.563 42.563 0 0 1 .44.626h1.518c.161.704.367 1.467.616 2.288.25.807.528 1.643.836 2.508.323.865.675 1.753 1.056 2.662.381.91.792 1.804 1.232 2.684.323-.91.609-1.767.858-2.574.25-.807.477-1.606.682-2.398.22-.807.425-1.628.616-2.464A160.7 160.7 0 0 0 8.492.626h1.43A87.11 87.11 0 0 1 8.316 6.83a54.583 54.583 0 0 1-1.958 5.522 12.08 12.08 0 0 1-.858 1.694 4.74 4.74 0 0 1-.99 1.188c-.352.308-.77.535-1.254.682-.47.147-1.027.22-1.672.22-.367 0-.704-.044-1.012-.132-.293-.088-.477-.154-.55-.198l.286-1.188c.059.044.22.103.484.176.279.088.565.132.858.132.41 0 .777-.044 1.1-.132.337-.088.638-.242.902-.462.264-.205.499-.477.704-.814.22-.337.433-.763.638-1.276ZM11.476.626h1.43v3.08c0 1.056.235 1.782.704 2.178.484.396 1.173.594 2.068.594.748 0 1.327-.037 1.738-.11a6.818 6.818 0 0 0 1.078-.264V.626h1.43V12h-1.43V7.314l-.462.132c-.19.044-.418.088-.682.132-.264.044-.55.088-.858.132-.293.03-.594.044-.902.044-.63 0-1.203-.066-1.716-.198a3.302 3.302 0 0 1-1.298-.66c-.352-.308-.623-.711-.814-1.21-.19-.513-.286-1.144-.286-1.892V.626Zm19.967 1.826c-.44.528-.954 1.195-1.54 2.002-.572.807-1.159 1.657-1.76 2.552A126.988 126.988 0 0 0 25.04 12h-1.342V.626h1.408v9.108c.352-.63.784-1.357 1.298-2.178a62.119 62.119 0 0 1 1.672-2.508 70.56 70.56 0 0 1 1.76-2.442 26.515 26.515 0 0 1 1.672-1.98h1.342V12h-1.408V2.452Zm10.58 7.964c-.089-.22-.22-.52-.397-.902a71.392 71.392 0 0 0-.594-1.298c-.205-.484-.432-.99-.682-1.518a52.35 52.35 0 0 0-.748-1.562 65.553 65.553 0 0 0-.682-1.408c-.22-.44-.41-.8-.572-1.078a88.274 88.274 0 0 0-.418 4.818c-.088 1.51-.161 3.021-.22 4.532h-1.342c.059-1.892.154-3.799.286-5.72.147-1.921.33-3.806.55-5.654h1.474c.19.308.433.748.726 1.32.308.572.638 1.225.99 1.958.367.719.74 1.503 1.122 2.354.396.836.792 1.687 1.188 2.552l1.166-2.552c.396-.85.77-1.635 1.122-2.354.367-.733.697-1.386.99-1.958a14.09 14.09 0 0 1 .748-1.32h1.452c.22 1.848.396 3.733.528 5.654.147 1.921.25 3.828.308 5.72h-1.364c-.058-1.51-.132-3.021-.22-4.532a88.174 88.174 0 0 0-.418-4.818c-.161.293-.352.66-.572 1.1-.22.425-.454.887-.704 1.386-.234.499-.476 1.02-.726 1.562-.25.528-.484 1.034-.704 1.518-.205.47-.396.902-.572 1.298-.176.381-.308.682-.396.902h-1.32Zm15.216 1.826c-.88 0-1.658-.14-2.332-.418a4.54 4.54 0 0 1-1.694-1.188 5.6 5.6 0 0 1-1.012-1.87c-.235-.733-.352-1.54-.352-2.42 0-.895.117-1.709.352-2.442a5.649 5.649 0 0 1 1.056-1.892 4.505 4.505 0 0 1 1.65-1.21c.645-.293 1.371-.44 2.178-.44.616 0 1.188.051 1.716.154.542.103.96.235 1.254.396l-.374 1.232a4.62 4.62 0 0 0-.99-.352c-.367-.088-.858-.132-1.474-.132-1.262 0-2.222.41-2.882 1.232-.646.807-.968 1.958-.968 3.454 0 .675.073 1.298.22 1.87.146.557.381 1.041.704 1.452a3.63 3.63 0 0 0 1.276.946c.528.22 1.166.33 1.914.33.616 0 1.129-.066 1.54-.198.425-.147.733-.271.924-.374l.308 1.232c-.264.147-.682.286-1.254.418a6.888 6.888 0 0 1-1.76.22Zm8.359-4.884c-.22.337-.462.704-.726 1.1-.25.396-.499.8-.748 1.21-.235.41-.462.821-.682 1.232-.22.396-.404.763-.55 1.1h-1.474c.381-.865.843-1.738 1.386-2.618.542-.88 1.048-1.65 1.518-2.31a4.01 4.01 0 0 1-.858-.374 3.179 3.179 0 0 1-.726-.616 3.215 3.215 0 0 1-.506-.88 3.364 3.364 0 0 1-.198-1.188c0-.63.117-1.173.352-1.628.25-.455.58-.829.99-1.122a4.639 4.639 0 0 1 1.496-.66 7.688 7.688 0 0 1 1.87-.22c.293 0 .616.015.968.044.367.03.726.073 1.078.132.367.044.704.095 1.012.154.308.059.565.117.77.176V12h-1.43V7.424H66.214a5.288 5.288 0 0 1-.616-.066Zm3.542-5.5a7.25 7.25 0 0 0-.858-.132 10.7 10.7 0 0 0-1.518-.088c-.41 0-.814.044-1.21.132a3.034 3.034 0 0 0-1.034.396 2.28 2.28 0 0 0-.748.748c-.176.293-.264.66-.264 1.1 0 .425.08.785.242 1.078a1.9 1.9 0 0 0 .682.682c.293.161.645.279 1.056.352.425.073.894.11 1.408.11h2.244V1.858Z" fill="#fff"/></svg>