<svg width="30" height="30" fill="none" xmlns="http://www.w3.org/2000/svg"><path d="M27.656 16.294v-4.608l1.233-1.012a.455.455 0 0 0 .11-.594.49.49 0 0 0-.147-.161L15.258 1.013a.487.487 0 0 0-.516 0L1.148 9.919a.49.49 0 0 0-.21.37.454.454 0 0 0 .173.385l4.983 4.078v.267a9.844 9.844 0 1 0 17.812 0v-.267l2.813-2.302v3.844L25.57 18.59a1.407 1.407 0 0 0 1.261 2.034h.713a1.408 1.408 0 0 0 1.26-2.034l-1.148-2.297ZM11.26 18.75c.016-1.874.352-3.732.994-5.494.913-.09 1.83-.134 2.747-.13.917-.004 1.834.04 2.747.13.642 1.762.978 3.62.994 5.494h-7.482Zm7.482.938a17.702 17.702 0 0 1-.586 4.28 9.66 9.66 0 0 0-6.31 0 17.707 17.707 0 0 1-.586-4.28h7.482ZM15 12.188c-3.206 0-6.427.51-7.969 1.49v-2.897c0-.637 2.813-1.875 7.969-1.875 5.156 0 7.969 1.238 7.969 1.875v2.897c-1.542-.98-4.763-1.49-7.969-1.49Zm-3.797 1.195a17.99 17.99 0 0 0-.881 5.367H6.108a8.778 8.778 0 0 1 .876-3.417.458.458 0 0 0 .047-.206V15c0-.455 1.453-1.219 4.172-1.617Zm-5.086 6.305h4.205c.022 1.561.241 3.114.651 4.621a9.906 9.906 0 0 0-2.142 1.318 8.856 8.856 0 0 1-2.714-5.94Zm3.436 6.562a8.86 8.86 0 0 1 1.706-1.045c.317.945.8 1.826 1.425 2.601a8.845 8.845 0 0 1-3.13-1.556ZM15 28.125c-1.05 0-2.142-1.21-2.873-3.262a8.712 8.712 0 0 1 5.746 0c-.73 2.053-1.823 3.262-2.873 3.262Zm2.316-.319a8.397 8.397 0 0 0 1.425-2.601 8.86 8.86 0 0 1 1.706 1.045 8.846 8.846 0 0 1-3.131 1.556Zm3.853-2.18a9.907 9.907 0 0 0-2.142-1.317c.41-1.507.629-3.06.651-4.621h4.205a8.856 8.856 0 0 1-2.714 5.939Zm-1.49-6.876a17.99 17.99 0 0 0-.882-5.367c2.719.398 4.172 1.162 4.172 1.617v.127c0 .071.015.142.047.206.52 1.068.818 2.23.876 3.417h-4.214Zm4.227-5.208v-2.76c0-1.848-4.481-2.813-8.906-2.813-4.425 0-8.906.965-8.906 2.812v2.761l-3.896-3.187L15 1.969l12.802 8.386-3.896 3.187Zm4.036 5.925a.452.452 0 0 1-.398.22h-.713a.453.453 0 0 1-.398-.22.472.472 0 0 1-.024-.46l.779-1.55.778 1.55a.472.472 0 0 1-.024.46Z" fill="#fff"/></svg>