<svg width="196" height="30" fill="none" xmlns="http://www.w3.org/2000/svg"><path d="M4.994 23.242a55.14 55.14 0 0 1-1.408-2.794 73.073 73.073 0 0 1-1.254-2.926 65.747 65.747 0 0 1-1.056-2.97 42.563 42.563 0 0 1-.836-2.926h1.518c.161.704.367 1.467.616 2.288.25.807.528 1.643.836 2.508.323.865.675 1.753 1.056 2.662.381.91.792 1.804 1.232 2.684.323-.91.609-1.767.858-2.574.25-.807.477-1.606.682-2.398.22-.807.425-1.628.616-2.464a160.7 160.7 0 0 0 .638-2.706h1.43a87.1 87.1 0 0 1-1.606 6.204 54.586 54.586 0 0 1-1.958 5.522 12.08 12.08 0 0 1-.858 1.694 4.74 4.74 0 0 1-.99 1.188c-.352.308-.77.535-1.254.682-.47.147-1.027.22-1.672.22-.367 0-.704-.044-1.012-.132-.293-.088-.477-.154-.55-.198l.286-1.188c.059.044.22.103.484.176.279.088.565.132.858.132.41 0 .777-.044 1.1-.132.337-.088.638-.242.902-.462.264-.205.499-.477.704-.814.22-.337.433-.763.638-1.276Zm6.482-11.616h1.43v3.08c0 1.056.235 1.782.704 2.178.484.396 1.173.594 2.068.594.748 0 1.327-.037 1.738-.11a6.811 6.811 0 0 0 1.078-.264v-5.478h1.43V23h-1.43v-4.686l-.462.132c-.19.044-.418.088-.682.132-.264.044-.55.088-.858.132-.293.03-.594.044-.902.044-.63 0-1.203-.066-1.716-.198a3.302 3.302 0 0 1-1.298-.66c-.352-.308-.623-.711-.814-1.21-.19-.513-.286-1.144-.286-1.892v-3.168Zm19.967 1.826c-.44.528-.954 1.195-1.54 2.002-.572.807-1.159 1.657-1.76 2.552A126.988 126.988 0 0 0 25.04 23h-1.342V11.626h1.408v9.108c.352-.63.784-1.357 1.298-2.178a62.119 62.119 0 0 1 1.672-2.508 70.503 70.503 0 0 1 1.76-2.442 26.527 26.527 0 0 1 1.672-1.98h1.342V23h-1.408v-9.548Zm10.58 7.964c-.089-.22-.22-.52-.397-.902a71.298 71.298 0 0 0-.594-1.298c-.205-.484-.432-.99-.682-1.518a52.35 52.35 0 0 0-.748-1.562 65.485 65.485 0 0 0-.682-1.408c-.22-.44-.41-.8-.572-1.078a88.28 88.28 0 0 0-.418 4.818c-.088 1.51-.161 3.021-.22 4.532h-1.342c.059-1.892.154-3.799.286-5.72.147-1.921.33-3.806.55-5.654h1.474c.19.308.433.748.726 1.32.308.572.638 1.225.99 1.958.367.719.74 1.503 1.122 2.354.396.836.792 1.687 1.188 2.552l1.166-2.552c.396-.85.77-1.635 1.122-2.354.367-.733.697-1.386.99-1.958a14.09 14.09 0 0 1 .748-1.32h1.452c.22 1.848.396 3.733.528 5.654.147 1.921.25 3.828.308 5.72h-1.364c-.058-1.51-.132-3.021-.22-4.532a88.18 88.18 0 0 0-.418-4.818c-.161.293-.352.66-.572 1.1-.22.425-.454.887-.704 1.386-.234.499-.476 1.02-.726 1.562-.25.528-.484 1.034-.704 1.518-.205.47-.396.902-.572 1.298a20.16 20.16 0 0 0-.396.902h-1.32Zm15.216 1.826c-.88 0-1.658-.14-2.332-.418a4.54 4.54 0 0 1-1.694-1.188 5.6 5.6 0 0 1-1.012-1.87c-.235-.733-.352-1.54-.352-2.42 0-.895.117-1.709.352-2.442a5.65 5.65 0 0 1 1.056-1.892 4.505 4.505 0 0 1 1.65-1.21c.645-.293 1.371-.44 2.178-.44.616 0 1.188.051 1.716.154.542.103.96.235 1.254.396l-.374 1.232a4.62 4.62 0 0 0-.99-.352c-.367-.088-.858-.132-1.474-.132-1.262 0-2.222.41-2.882 1.232-.646.807-.968 1.958-.968 3.454 0 .675.073 1.298.22 1.87.146.557.381 1.041.704 1.452a3.63 3.63 0 0 0 1.276.946c.528.22 1.166.33 1.914.33.616 0 1.129-.066 1.54-.198.425-.147.733-.271.924-.374l.308 1.232c-.264.147-.682.286-1.254.418a6.888 6.888 0 0 1-1.76.22Zm8.359-4.884c-.22.337-.462.704-.726 1.1-.25.396-.499.8-.748 1.21-.235.41-.462.821-.682 1.232-.22.396-.404.763-.55 1.1h-1.474c.381-.865.843-1.738 1.386-2.618.542-.88 1.048-1.65 1.518-2.31a4.012 4.012 0 0 1-.858-.374 3.179 3.179 0 0 1-.726-.616 3.215 3.215 0 0 1-.506-.88 3.364 3.364 0 0 1-.198-1.188c0-.63.117-1.173.352-1.628.25-.455.58-.829.99-1.122a4.64 4.64 0 0 1 1.496-.66 7.686 7.686 0 0 1 1.87-.22c.293 0 .616.015.968.044.367.03.726.073 1.078.132.367.044.704.095 1.012.154.308.059.565.117.77.176V23h-1.43v-4.576H66.214a5.301 5.301 0 0 1-.616-.066Zm3.542-5.5a7.25 7.25 0 0 0-.858-.132 10.695 10.695 0 0 0-1.518-.088c-.41 0-.814.044-1.21.132a3.033 3.033 0 0 0-1.034.396 2.28 2.28 0 0 0-.748.748c-.176.293-.264.66-.264 1.1 0 .425.08.785.242 1.078a1.9 1.9 0 0 0 .682.682c.293.161.645.279 1.056.352.425.073.894.11 1.408.11h2.244v-4.378Z" fill="#fff"/><path d="M117.092 15.366c0 .836.103 1.599.308 2.288.205.675.499 1.254.88 1.738.396.47.873.836 1.43 1.1.557.264 1.188.396 1.892.396.689 0 1.313-.132 1.87-.396a3.99 3.99 0 0 0 1.408-1.1 5.01 5.01 0 0 0 .902-1.738c.205-.69.308-1.452.308-2.288 0-.836-.103-1.591-.308-2.266-.205-.69-.506-1.269-.902-1.738a3.888 3.888 0 0 0-1.408-1.122c-.557-.264-1.181-.396-1.87-.396-.704 0-1.335.132-1.892.396a4.093 4.093 0 0 0-1.43 1.122 5.242 5.242 0 0 0-.88 1.738c-.205.675-.308 1.43-.308 2.266Zm11.902 0c0 1.305-.198 2.457-.594 3.454-.381.997-.909 1.833-1.584 2.508a6.495 6.495 0 0 1-2.332 1.496 8.04 8.04 0 0 1-2.86.506 8.218 8.218 0 0 1-2.882-.506 6.716 6.716 0 0 1-2.354-1.496c-.66-.675-1.188-1.51-1.584-2.508-.396-.997-.594-2.149-.594-3.454 0-1.305.198-2.45.594-3.432.396-.997.931-1.833 1.606-2.508a6.78 6.78 0 0 1 2.376-1.518 7.98 7.98 0 0 1 2.838-.506 7.98 7.98 0 0 1 2.838.506 6.358 6.358 0 0 1 2.332 1.518c.675.675 1.21 1.51 1.606 2.508.396.983.594 2.127.594 3.432ZM141.561 23h-2.662v-4.818h-4.334V23h-2.662V11.494h2.662v4.488h4.334v-4.488h2.662V23Zm7.893-9.306c-.015.645-.037 1.32-.066 2.024-.029.69-.103 1.371-.22 2.046a9.389 9.389 0 0 1-.506 1.936 5.68 5.68 0 0 1-.99 1.672 5.29 5.29 0 0 1-1.562 1.232c-.616.323-1.371.528-2.266.616l-.374-2.222c.748-.147 1.327-.381 1.738-.704.411-.337.726-.763.946-1.276.176-.381.308-.814.396-1.298.103-.484.176-.99.22-1.518.059-.543.095-1.093.11-1.65.015-.557.022-1.1.022-1.628v-1.43h8.14V23h-2.662v-9.306h-2.926Zm13.03 7.436c.822 0 1.445-.044 1.87-.132V18.05a5.936 5.936 0 0 0-1.562-.198c-.293 0-.594.022-.902.066a2.928 2.928 0 0 0-.814.242 1.47 1.47 0 0 0-.572.506c-.146.205-.22.47-.22.792 0 .63.198 1.07.594 1.32.396.235.932.352 1.606.352Zm-.22-9.922c.88 0 1.621.11 2.222.33.602.22 1.078.528 1.43.924.367.396.624.88.77 1.452.162.557.242 1.173.242 1.848v6.974c-.41.088-1.034.19-1.87.308-.821.132-1.752.198-2.794.198-.689 0-1.32-.066-1.892-.198a4.09 4.09 0 0 1-1.474-.638 3.153 3.153 0 0 1-.946-1.144c-.22-.47-.33-1.049-.33-1.738 0-.66.125-1.217.374-1.672a3.161 3.161 0 0 1 1.056-1.1c.44-.293.946-.499 1.518-.616a8.3 8.3 0 0 1 1.826-.198c.294 0 .602.022.924.066.323.03.668.088 1.034.176v-.44c0-.308-.036-.601-.11-.88a1.669 1.669 0 0 0-.396-.726 1.661 1.661 0 0 0-.726-.506c-.293-.117-.667-.176-1.122-.176-.616 0-1.18.044-1.694.132-.513.088-.931.19-1.254.308l-.33-2.156c.338-.117.829-.235 1.474-.352a11.57 11.57 0 0 1 2.068-.176Zm18 .286V23h-2.64v-2.486c.015-.821.022-1.584.022-2.288a86.98 86.98 0 0 0 .022-1.826c.015-.528.022-.917.022-1.166-.44.572-.895 1.203-1.364 1.892l-1.408 2.068c-.455.69-.887 1.364-1.298 2.024-.411.66-.77 1.254-1.078 1.782h-2.354V11.494h2.618c0 .85-.007 1.665-.022 2.442v2.09c0 .63-.007 1.18-.022 1.65v1.078c.411-.63.836-1.276 1.276-1.936.44-.675.88-1.327 1.32-1.958.455-.645.902-1.254 1.342-1.826.44-.572.865-1.085 1.276-1.54h2.288Zm-5.016-1.716c-.469 0-.909-.066-1.32-.198a3.627 3.627 0 0 1-1.078-.572 3.1 3.1 0 0 1-.792-.902 3.109 3.109 0 0 1-.374-1.232l1.914-.506c.249 1.041.799 1.562 1.65 1.562.865 0 1.415-.513 1.65-1.54l1.892.506a3.394 3.394 0 0 1-.396 1.232 2.838 2.838 0 0 1-.77.902 3.554 3.554 0 0 1-1.078.55 4.216 4.216 0 0 1-1.298.198ZM193.317 23h-2.662v-4.818h-4.334V23h-2.662V11.494h2.662v4.488h4.334v-4.488h2.662V23Z" fill="#0ED984"/><g clip-path="url(#a)"><path d="M105.656 16.294v-4.608l1.233-1.013a.45.45 0 0 0 .174-.384.485.485 0 0 0-.211-.37L93.258 1.013a.487.487 0 0 0-.516 0L79.148 9.919a.49.49 0 0 0-.21.37.453.453 0 0 0 .173.384l4.983 4.079v.267a9.844 9.844 0 1 0 17.812 0v-.267l2.813-2.302v3.844l-1.149 2.297a1.408 1.408 0 0 0 1.261 2.034h.713a1.401 1.401 0 0 0 1.198-.665 1.41 1.41 0 0 0 .063-1.37l-1.149-2.296ZM89.259 18.75a16.45 16.45 0 0 1 .994-5.494c.913-.09 1.83-.134 2.747-.131.917-.003 1.834.041 2.747.131.642 1.761.978 3.62.994 5.494h-7.482Zm7.482.938a17.703 17.703 0 0 1-.586 4.28 9.659 9.659 0 0 0-6.31 0 17.708 17.708 0 0 1-.586-4.28h7.482ZM93 12.188c-3.206 0-6.427.51-7.969 1.49v-2.897c0-.637 2.813-1.875 7.969-1.875 5.156 0 7.969 1.238 7.969 1.875v2.897c-1.542-.98-4.763-1.49-7.969-1.49Zm-3.797 1.195a17.991 17.991 0 0 0-.881 5.367h-4.214a8.78 8.78 0 0 1 .876-3.417.458.458 0 0 0 .047-.206V15c0-.455 1.453-1.219 4.172-1.617Zm-5.086 6.305h4.205c.022 1.561.241 3.114.651 4.621a9.9 9.9 0 0 0-2.142 1.318 8.857 8.857 0 0 1-2.714-5.94Zm3.436 6.562a8.865 8.865 0 0 1 1.706-1.045c.317.945.8 1.826 1.425 2.601a8.848 8.848 0 0 1-3.13-1.556ZM93 28.125c-1.05 0-2.142-1.21-2.873-3.262a8.712 8.712 0 0 1 5.747 0c-.732 2.053-1.824 3.262-2.874 3.262Zm2.316-.319a8.397 8.397 0 0 0 1.425-2.601 8.865 8.865 0 0 1 1.706 1.045 8.848 8.848 0 0 1-3.131 1.556Zm3.853-2.18a9.903 9.903 0 0 0-2.142-1.317c.41-1.507.629-3.06.651-4.622h4.205a8.855 8.855 0 0 1-2.714 5.94Zm-1.49-6.876a17.991 17.991 0 0 0-.882-5.367c2.719.398 4.172 1.162 4.172 1.617v.127a.447.447 0 0 0 .047.206c.52 1.068.818 2.23.876 3.417h-4.214Zm4.227-5.208v-2.76c0-1.848-4.481-2.813-8.906-2.813-4.425 0-8.906.965-8.906 2.812v2.761l-3.896-3.187L93 1.969l12.802 8.386-3.896 3.187Zm4.036 5.925a.451.451 0 0 1-.398.22h-.713a.453.453 0 0 1-.398-.22.48.48 0 0 1-.072-.226.48.48 0 0 1 .048-.233l.779-1.552.778 1.552a.48.48 0 0 1 .048.233.48.48 0 0 1-.072.226Z" fill="#fff"/></g><defs><clipPath id="a"><path fill="#fff" transform="translate(78)" d="M0 0h30v30H0z"/></clipPath></defs></svg>