<svg width="80" height="18" viewBox="0 0 80 18" fill="none" xmlns="http://www.w3.org/2000/svg">
<path d="M3.092 9.366C3.092 10.202 3.19467 10.9647 3.4 11.654C3.60533 12.3287 3.89867 12.908 4.28 13.392C4.676 13.8613 5.15267 14.228 5.71 14.492C6.26733 14.756 6.898 14.888 7.602 14.888C8.29133 14.888 8.91467 14.756 9.472 14.492C10.0293 14.228 10.4987 13.8613 10.88 13.392C11.276 12.908 11.5767 12.3287 11.782 11.654C11.9873 10.9647 12.09 10.202 12.09 9.366C12.09 8.53 11.9873 7.77467 11.782 7.1C11.5767 6.41067 11.276 5.83133 10.88 5.362C10.4987 4.878 10.0293 4.504 9.472 4.24C8.91467 3.976 8.29133 3.844 7.602 3.844C6.898 3.844 6.26733 3.976 5.71 4.24C5.15267 4.504 4.676 4.878 4.28 5.362C3.89867 5.846 3.60533 6.42533 3.4 7.1C3.19467 7.77467 3.092 8.53 3.092 9.366ZM14.994 9.366C14.994 10.6713 14.796 11.8227 14.4 12.82C14.0187 13.8173 13.4907 14.6533 12.816 15.328C12.156 15.988 11.3787 16.4867 10.484 16.824C9.58933 17.1613 8.636 17.33 7.624 17.33C6.612 17.33 5.65133 17.1613 4.742 16.824C3.84733 16.4867 3.06267 15.988 2.388 15.328C1.728 14.6533 1.2 13.8173 0.804 12.82C0.408 11.8227 0.21 10.6713 0.21 9.366C0.21 8.06067 0.408 6.91667 0.804 5.934C1.2 4.93667 1.73533 4.10067 2.41 3.426C3.09933 2.75133 3.89133 2.24533 4.786 1.908C5.68067 1.57067 6.62667 1.402 7.624 1.402C8.62133 1.402 9.56733 1.57067 10.462 1.908C11.3567 2.24533 12.134 2.75133 12.794 3.426C13.4687 4.10067 14.004 4.93667 14.4 5.934C14.796 6.91667 14.994 8.06067 14.994 9.366ZM27.561 17H24.899V12.182H20.565V17H17.903V5.494H20.565V9.982H24.899V5.494H27.561V17ZM35.454 7.694C35.4393 8.33933 35.4173 9.014 35.388 9.718C35.3587 10.4073 35.2853 11.0893 35.168 11.764C35.0653 12.4387 34.8967 13.084 34.662 13.7C34.4273 14.316 34.0973 14.8733 33.672 15.372C33.2613 15.856 32.7407 16.2667 32.11 16.604C31.494 16.9267 30.7387 17.132 29.844 17.22L29.47 14.998C30.218 14.8513 30.7973 14.6167 31.208 14.294C31.6187 13.9567 31.934 13.5313 32.154 13.018C32.33 12.6367 32.462 12.204 32.55 11.72C32.6527 11.236 32.726 10.73 32.77 10.202C32.8287 9.65933 32.8653 9.10933 32.88 8.552C32.8947 7.99467 32.902 7.452 32.902 6.924V5.494H41.042V17H38.38V7.694H35.454ZM48.4842 15.13C49.3055 15.13 49.9289 15.086 50.3542 14.998V12.05C50.2075 12.006 49.9949 11.962 49.7162 11.918C49.4375 11.874 49.1295 11.852 48.7922 11.852C48.4989 11.852 48.1982 11.874 47.8902 11.918C47.5969 11.962 47.3255 12.0427 47.0762 12.16C46.8415 12.2773 46.6509 12.446 46.5042 12.666C46.3575 12.8713 46.2842 13.1353 46.2842 13.458C46.2842 14.0887 46.4822 14.5287 46.8782 14.778C47.2742 15.0127 47.8095 15.13 48.4842 15.13ZM48.2642 5.208C49.1442 5.208 49.8849 5.318 50.4862 5.538C51.0875 5.758 51.5642 6.066 51.9162 6.462C52.2829 6.858 52.5395 7.342 52.6862 7.914C52.8475 8.47133 52.9282 9.08733 52.9282 9.762V16.736C52.5175 16.824 51.8942 16.9267 51.0582 17.044C50.2369 17.176 49.3055 17.242 48.2642 17.242C47.5749 17.242 46.9442 17.176 46.3722 17.044C45.8002 16.912 45.3089 16.6993 44.8982 16.406C44.5022 16.1127 44.1869 15.7313 43.9522 15.262C43.7322 14.7927 43.6222 14.2133 43.6222 13.524C43.6222 12.864 43.7469 12.3067 43.9962 11.852C44.2602 11.3973 44.6122 11.0307 45.0522 10.752C45.4922 10.4587 45.9982 10.2533 46.5702 10.136C47.1569 10.004 47.7655 9.938 48.3962 9.938C48.6895 9.938 48.9975 9.96 49.3202 10.004C49.6429 10.0333 49.9875 10.092 50.3542 10.18V9.74C50.3542 9.432 50.3175 9.13867 50.2442 8.86C50.1709 8.58133 50.0389 8.33933 49.8482 8.134C49.6722 7.914 49.4302 7.74533 49.1222 7.628C48.8289 7.51067 48.4549 7.452 48.0002 7.452C47.3842 7.452 46.8195 7.496 46.3062 7.584C45.7929 7.672 45.3749 7.77467 45.0522 7.892L44.7222 5.736C45.0595 5.61867 45.5509 5.50133 46.1962 5.384C46.8415 5.26667 47.5309 5.208 48.2642 5.208ZM66.2641 5.494V17H63.6241C63.6241 16.164 63.6241 15.3353 63.6241 14.514C63.6388 13.6927 63.6461 12.93 63.6461 12.226C63.6608 11.522 63.6681 10.9133 63.6681 10.4C63.6828 9.872 63.6901 9.48333 63.6901 9.234C63.2501 9.806 62.7955 10.4367 62.3261 11.126C61.8568 11.8153 61.3875 12.5047 60.9181 13.194C60.4635 13.8833 60.0308 14.558 59.6201 15.218C59.2095 15.878 58.8501 16.472 58.5421 17H56.1881V5.494H58.8061C58.8061 6.34467 58.7988 7.15867 58.7841 7.936C58.7841 8.69867 58.7841 9.39533 58.7841 10.026C58.7841 10.6567 58.7768 11.2067 58.7621 11.676C58.7621 12.1453 58.7621 12.5047 58.7621 12.754C59.1728 12.1233 59.5981 11.478 60.0381 10.818C60.4781 10.1433 60.9181 9.49067 61.3581 8.86C61.8128 8.21467 62.2601 7.606 62.7001 7.034C63.1401 6.462 63.5655 5.94867 63.9761 5.494H66.2641ZM61.2481 3.778C60.7788 3.778 60.3388 3.712 59.9281 3.58C59.5321 3.448 59.1728 3.25733 58.8501 3.008C58.5275 2.75867 58.2635 2.458 58.0581 2.106C57.8528 1.73933 57.7281 1.32867 57.6841 0.873999L59.5981 0.367999C59.8475 1.40933 60.3975 1.93 61.2481 1.93C62.1135 1.93 62.6635 1.41667 62.8981 0.389999L64.7901 0.895999C64.7315 1.35067 64.5995 1.76133 64.3941 2.128C64.2035 2.48 63.9468 2.78067 63.6241 3.03C63.3161 3.26467 62.9568 3.448 62.5461 3.58C62.1355 3.712 61.7028 3.778 61.2481 3.778ZM79.3168 17H76.6548V12.182H72.3208V17H69.6588V5.494H72.3208V9.982H76.6548V5.494H79.3168V17Z" fill="#0ED984"/>
</svg>
