<svg width="71" height="17" viewBox="0 0 71 17" fill="none" xmlns="http://www.w3.org/2000/svg">
<path d="M4.994 12.242C4.51 11.3473 4.04067 10.416 3.586 9.448C3.146 8.48 2.728 7.50467 2.332 6.522C1.95067 5.52467 1.59867 4.53467 1.276 3.552C0.953333 2.55467 0.674667 1.57933 0.44 0.626H1.958C2.11933 1.33 2.32467 2.09267 2.574 2.914C2.82333 3.72067 3.102 4.55667 3.41 5.422C3.73267 6.28733 4.08467 7.17467 4.466 8.084C4.84733 8.99333 5.258 9.888 5.698 10.768C6.02067 9.85867 6.30667 9.00067 6.556 8.194C6.80533 7.38733 7.03267 6.588 7.238 5.796C7.458 4.98933 7.66333 4.168 7.854 3.332C8.05933 2.496 8.272 1.594 8.492 0.626H9.922C9.45267 2.75267 8.91733 4.82067 8.316 6.83C7.71467 8.83933 7.062 10.68 6.358 12.352C6.07933 13.012 5.79333 13.5767 5.5 14.046C5.20667 14.53 4.87667 14.926 4.51 15.234C4.158 15.542 3.74 15.7693 3.256 15.916C2.78667 16.0627 2.22933 16.136 1.584 16.136C1.21733 16.136 0.88 16.092 0.572 16.004C0.278667 15.916 0.0953333 15.85 0.022 15.806L0.308 14.618C0.366667 14.662 0.528 14.7207 0.792 14.794C1.07067 14.882 1.35667 14.926 1.65 14.926C2.06067 14.926 2.42733 14.882 2.75 14.794C3.08733 14.706 3.388 14.552 3.652 14.332C3.916 14.1267 4.15067 13.8553 4.356 13.518C4.576 13.1807 4.78867 12.7553 4.994 12.242ZM11.4759 0.626H12.9059V3.706C12.9059 4.762 13.1406 5.488 13.6099 5.884C14.0939 6.28 14.7833 6.478 15.6779 6.478C16.4259 6.478 17.0053 6.44133 17.4159 6.368C17.8413 6.29467 18.2006 6.20667 18.4939 6.104V0.626H19.9239V12H18.4939V7.314C18.3913 7.34333 18.2373 7.38733 18.0319 7.446C17.8413 7.49 17.6139 7.534 17.3499 7.578C17.0859 7.622 16.7999 7.666 16.4919 7.71C16.1986 7.73933 15.8979 7.754 15.5899 7.754C14.9593 7.754 14.3873 7.688 13.8739 7.556C13.3753 7.424 12.9426 7.204 12.5759 6.896C12.2239 6.588 11.9526 6.18467 11.7619 5.686C11.5713 5.17267 11.4759 4.542 11.4759 3.794V0.626ZM31.4426 2.452C31.0026 2.98 30.4893 3.64733 29.9026 4.454C29.3306 5.26067 28.744 6.11133 28.1426 7.006C27.556 7.90067 26.9913 8.788 26.4486 9.668C25.906 10.548 25.4366 11.3253 25.0406 12H23.6986V0.626H25.1066V9.734C25.4586 9.10333 25.8913 8.37733 26.4046 7.556C26.9326 6.72 27.49 5.884 28.0766 5.048C28.6633 4.19733 29.25 3.38333 29.8366 2.606C30.438 1.82867 30.9953 1.16867 31.5086 0.626H32.8506V12H31.4426V2.452ZM42.0222 10.416C41.9342 10.196 41.8022 9.89533 41.6262 9.514C41.4502 9.118 41.2522 8.68533 41.0322 8.216C40.8269 7.732 40.5996 7.226 40.3502 6.698C40.1009 6.15533 39.8516 5.63467 39.6022 5.136C39.3676 4.63733 39.1402 4.168 38.9202 3.728C38.7002 3.288 38.5096 2.92867 38.3482 2.65C38.1576 4.33667 38.0182 5.94267 37.9302 7.468C37.8422 8.97867 37.7689 10.4893 37.7102 12H36.3682C36.4269 10.108 36.5222 8.20133 36.6542 6.28C36.8009 4.35867 36.9842 2.474 37.2042 0.626H38.6782C38.8689 0.934 39.1109 1.374 39.4042 1.946C39.7122 2.518 40.0422 3.17067 40.3942 3.904C40.7609 4.62267 41.1349 5.40733 41.5162 6.258C41.9122 7.094 42.3082 7.94467 42.7042 8.81C43.1002 7.94467 43.4889 7.094 43.8702 6.258C44.2662 5.40733 44.6402 4.62267 44.9922 3.904C45.3589 3.17067 45.6889 2.518 45.9822 1.946C46.2756 1.374 46.5249 0.934 46.7302 0.626H48.1822C48.4022 2.474 48.5782 4.35867 48.7102 6.28C48.8569 8.20133 48.9596 10.108 49.0182 12H47.6542C47.5956 10.4893 47.5222 8.97867 47.4342 7.468C47.3462 5.94267 47.2069 4.33667 47.0162 2.65C46.8549 2.94333 46.6642 3.31 46.4442 3.75C46.2242 4.17533 45.9896 4.63733 45.7402 5.136C45.5056 5.63467 45.2636 6.15533 45.0142 6.698C44.7649 7.226 44.5302 7.732 44.3102 8.216C44.1049 8.68533 43.9142 9.118 43.7382 9.514C43.5622 9.89533 43.4302 10.196 43.3422 10.416H42.0222ZM57.2387 12.242C56.3587 12.242 55.5813 12.1027 54.9067 11.824C54.232 11.5453 53.6673 11.1493 53.2127 10.636C52.7727 10.108 52.4353 9.48467 52.2007 8.766C51.966 8.03267 51.8487 7.226 51.8487 6.346C51.8487 5.45133 51.966 4.63733 52.2007 3.904C52.45 3.17067 52.802 2.54 53.2567 2.012C53.7113 1.484 54.2613 1.08067 54.9067 0.802C55.552 0.508666 56.278 0.361999 57.0847 0.361999C57.7007 0.361999 58.2727 0.413333 58.8007 0.516C59.3433 0.618666 59.7613 0.750666 60.0547 0.912L59.6807 2.144C59.3873 1.99733 59.0573 1.88 58.6907 1.792C58.324 1.704 57.8327 1.66 57.2167 1.66C55.9553 1.66 54.9947 2.07067 54.3347 2.892C53.6893 3.69867 53.3667 4.85 53.3667 6.346C53.3667 7.02067 53.44 7.644 53.5867 8.216C53.7333 8.77333 53.968 9.25733 54.2907 9.668C54.628 10.064 55.0533 10.3793 55.5667 10.614C56.0947 10.834 56.7327 10.944 57.4807 10.944C58.0967 10.944 58.61 10.878 59.0207 10.746C59.446 10.5993 59.754 10.4747 59.9447 10.372L60.2527 11.604C59.9887 11.7507 59.5707 11.89 58.9987 12.022C58.4413 12.1687 57.8547 12.242 57.2387 12.242ZM65.5978 7.358C65.3778 7.69533 65.1358 8.062 64.8718 8.458C64.6225 8.854 64.3731 9.25733 64.1238 9.668C63.8891 10.0787 63.6618 10.4893 63.4418 10.9C63.2218 11.296 63.0385 11.6627 62.8918 12H61.4178C61.7991 11.1347 62.2611 10.262 62.8038 9.382C63.3465 8.502 63.8525 7.732 64.3218 7.072C64.0285 6.984 63.7425 6.85933 63.4638 6.698C63.1998 6.53667 62.9578 6.33133 62.7378 6.082C62.5325 5.83267 62.3638 5.53933 62.2318 5.202C62.0998 4.85 62.0338 4.454 62.0338 4.014C62.0338 3.38333 62.1511 2.84067 62.3858 2.386C62.6351 1.93133 62.9651 1.55733 63.3758 1.264C63.8011 0.970666 64.2998 0.750666 64.8718 0.604C65.4585 0.457333 66.0818 0.384 66.7418 0.384C67.0351 0.384 67.3578 0.398667 67.7098 0.427999C68.0765 0.457332 68.4358 0.501332 68.7878 0.559999C69.1545 0.603999 69.4918 0.655333 69.7998 0.714C70.1078 0.772667 70.3645 0.831333 70.5698 0.89V12H69.1398V7.424H67.0938C66.7711 7.424 66.4778 7.424 66.2138 7.424C65.9645 7.40933 65.7591 7.38733 65.5978 7.358ZM69.1398 1.858C68.9638 1.814 68.6778 1.77 68.2818 1.726C67.8858 1.66733 67.3798 1.638 66.7638 1.638C66.3531 1.638 65.9498 1.682 65.5538 1.77C65.1725 1.84333 64.8278 1.97533 64.5198 2.166C64.2118 2.35667 63.9625 2.606 63.7718 2.914C63.5958 3.20733 63.5078 3.574 63.5078 4.014C63.5078 4.43933 63.5885 4.79867 63.7498 5.092C63.9111 5.37067 64.1385 5.598 64.4318 5.774C64.7251 5.93533 65.0771 6.05267 65.4878 6.126C65.9131 6.19933 66.3825 6.236 66.8958 6.236H69.1398V1.858Z" fill="white"/>
</svg>
